<svg xmlns="http://www.w3.org/2000/svg" xmlns:xlink="http://www.w3.org/1999/xlink" fill="none" version="1.1" width="42" height="42" viewBox="0 0 42 42"><defs><clipPath id="master_svg0_1_185"><rect x="0" y="0" width="42" height="42" rx="0"/></clipPath></defs><g clip-path="url(#master_svg0_1_185)"><g><path d="M3.5321048,13.6201Q2.04167,17.143900000000002,2.04167,21Q2.04167,24.8561,3.5321045,28.3799Q4.97123,31.7824,7.59443,34.4056Q10.21764,37.0288,13.6201,38.4679Q17.143900000000002,39.9583,21,39.9583Q24.8561,39.9583,28.3799,38.4679Q31.7824,37.0288,34.4056,34.4056Q37.0288,31.7824,38.4679,28.3799Q39.9583,24.8561,39.9583,21Q39.9583,17.143900000000002,38.4679,13.6201Q37.0288,10.21763,34.4056,7.59443Q31.7824,4.97123,28.3799,3.5321047Q24.8561,2.04167,21,2.04167Q17.143900000000002,2.04167,13.6201,3.5321045Q10.21763,4.97123,7.59443,7.59443Q4.97123,10.21763,3.5321048,13.6201ZM6.21837,27.2437Q4.95833,24.2646,4.95833,21Q4.95833,17.7354,6.21837,14.7563Q7.43588,11.87777,9.65683,9.65683Q11.87777,7.43588,14.7563,6.21837Q17.7354,4.95833,21,4.95833Q24.2646,4.95833,27.2437,6.21837Q30.1222,7.43588,32.343199999999996,9.65683Q34.564099999999996,11.87776,35.7816,14.7563Q37.0417,17.7354,37.0417,21Q37.0417,24.2646,35.7816,27.2437Q34.564099999999996,30.1222,32.343199999999996,32.343199999999996Q30.1222,34.564099999999996,27.2437,35.7816Q24.2646,37.0417,21,37.0417Q17.7354,37.0417,14.7563,35.7816Q11.87777,34.564099999999996,9.65683,32.343199999999996Q7.4358900000000006,30.1222,6.21837,27.2437Z" fill-rule="evenodd" fill="#333333" fill-opacity="1"/></g><g transform="matrix(0.7071067690849304,0.7071067690849304,-0.7071067690849304,0.7071067690849304,16.624863183031266,-10.510725414285844)"><path d="M19.54167,21.5626220703125L19.54167,16.8126220703125Q19.54167,15.3801330703125,20.554589,14.3672110703125Q21.567511,13.3542920703125,23,13.3542920703125L27.75,13.3542920703125Q29.18249,13.3542920703125,30.195410000000003,14.3672110703125Q31.2083,15.3801330703125,31.2083,16.8126220703125L31.2083,21.5626220703125Q31.2083,22.9951120703125,30.195410000000003,24.008032070312503Q29.18249,25.0209220703125,27.75,25.0209220703125L23,25.0209220703125Q21.567511,25.0209220703125,20.554589,24.008032070312503Q19.54167,22.9951120703125,19.54167,21.5626220703125ZM22.45833,21.5626220703125Q22.45833,21.7869820703125,22.61698,21.945642070312502Q22.77563,22.1042920703125,23,22.1042920703125L27.75,22.1042920703125Q27.97436,22.1042920703125,28.133020000000002,21.945642070312502Q28.29167,21.7869820703125,28.29167,21.5626220703125L28.29167,16.8126220703125Q28.29167,16.5882520703125,28.133020000000002,16.4296020703125Q27.97437,16.2709520703125,27.75,16.2709520703125L23,16.2709520703125Q22.77563,16.2709520703125,22.61698,16.4296020703125Q22.45833,16.5882520703125,22.45833,16.8126220703125L22.45833,21.5626220703125Z" fill="#333333" fill-opacity="1"/></g></g></svg>