<svg xmlns="http://www.w3.org/2000/svg" xmlns:xlink="http://www.w3.org/1999/xlink" fill="none" version="1.1" width="45" height="45" viewBox="0 0 45 45"><defs><clipPath id="master_svg0_1_190"><rect x="0" y="0" width="45" height="45" rx="0"/></clipPath></defs><g clip-path="url(#master_svg0_1_190)"><g><path d="M13.64583,9.4447416Q13.6475,9.4098907,13.6475,9.375Q13.6475,9.3032748,13.64047,9.231895Q13.63344,9.160515,13.61945,9.090168Q13.60545,9.019821,13.58463,8.951184Q13.56381,8.882548,13.53636,8.816282Q13.50892,8.750017,13.4751,8.686761Q13.44129,8.623505,13.40145,8.563868Q13.3616,8.50423,13.3161,8.448786Q13.27059,8.393341,13.21988,8.34262Q13.169159,8.29191,13.113714,8.2464Q13.05827,8.2009,12.998632,8.16105Q12.938995,8.12121,12.875739,8.0874Q12.812483,8.05358,12.746218,8.02614Q12.679952,7.99869,12.611316,7.97787Q12.542679,7.95705,12.472332,7.9430499999999995Q12.401985,7.92906,12.330605,7.9220299999999995Q12.2592252,7.915,12.1875,7.915Q12.1157748,7.915,12.044395,7.9220299999999995Q11.973015,7.92906,11.902668,7.9430499999999995Q11.832321,7.95705,11.763684,7.97787Q11.695048,7.99869,11.628782,8.02614Q11.562517,8.05358,11.499261,8.0874Q11.436005,8.12121,11.376368,8.16105Q11.31673,8.2009,11.261286,8.2464Q11.205841,8.29191,11.15512,8.34262Q11.10441,8.393341,11.0589,8.448786Q11.0134,8.50423,10.97355,8.563868Q10.93371,8.623505,10.8999,8.686761Q10.86608,8.750017,10.83864,8.816282Q10.81119,8.882548,10.79037,8.951184Q10.76955,9.019821,10.75555,9.090168Q10.74156,9.160515,10.73453,9.231895Q10.7275,9.3032748,10.7275,9.375Q10.7275,9.4098907,10.72917,9.4447416L10.72917,32.7428Q10.7275,32.7776,10.7275,32.8125Q10.7275,32.8842,10.73453,32.955600000000004Q10.74156,33.027,10.75555,33.097300000000004Q10.76955,33.167699999999996,10.79037,33.2363Q10.81119,33.305,10.83864,33.3712Q10.86608,33.4375,10.8999,33.500699999999995Q10.93371,33.564,10.97355,33.623599999999996Q11.0134,33.6833,11.0589,33.7387Q11.10441,33.794200000000004,11.15512,33.844899999999996Q11.205841,33.8956,11.261286,33.9411Q11.31673,33.986599999999996,11.376368,34.026399999999995Q11.436005,34.0663,11.499261,34.1001Q11.562517,34.1339,11.628782,34.1614Q11.695048,34.1888,11.763684,34.209599999999995Q11.832321,34.2305,11.902668,34.2444Q11.973015,34.2584,12.044395,34.2655Q12.1157748,34.2725,12.1875,34.2725Q12.2592252,34.2725,12.330605,34.2655Q12.401985,34.2584,12.472332,34.2444Q12.542679,34.2305,12.611316,34.209599999999995Q12.679952,34.1888,12.746218,34.1614Q12.812483,34.1339,12.875739,34.1001Q12.938995,34.0663,12.998632,34.026399999999995Q13.05827,33.986599999999996,13.113714,33.9411Q13.169159,33.8956,13.21988,33.844899999999996Q13.27059,33.794200000000004,13.3161,33.7387Q13.3616,33.6833,13.40145,33.623599999999996Q13.44129,33.564,13.4751,33.500699999999995Q13.50892,33.4375,13.53636,33.3712Q13.56381,33.305,13.58463,33.2363Q13.60545,33.167699999999996,13.61945,33.097300000000004Q13.63344,33.027,13.64047,32.955600000000004Q13.6475,32.8842,13.6475,32.8125Q13.6475,32.7776,13.64583,32.7428L13.64583,9.4447416Z" fill-rule="evenodd" fill="#333333" fill-opacity="1"/></g><g><path d="M34.27083,9.4447416Q34.2725,9.4098907,34.2725,9.375Q34.2725,9.3032748,34.26547,9.231895Q34.25844,9.160515,34.24445,9.090168Q34.23045,9.019821,34.20963,8.951184Q34.18881,8.882548,34.16136,8.816282Q34.13392,8.750017,34.1001,8.686761Q34.06629,8.623505,34.02645,8.563868Q33.9866,8.50423,33.9411,8.448786Q33.89559,8.393341,33.84488,8.34262Q33.794159,8.29191,33.738714,8.2464Q33.68327,8.2009,33.623632,8.16105Q33.563995,8.12121,33.500739,8.0874Q33.437483,8.05358,33.371218,8.02614Q33.304952,7.99869,33.236316,7.97787Q33.167679,7.95705,33.097332,7.9430499999999995Q33.026985,7.92906,32.955605,7.9220299999999995Q32.8842252,7.915,32.8125,7.915Q32.7407748,7.915,32.669395,7.9220299999999995Q32.598015,7.92906,32.527668,7.9430499999999995Q32.457321,7.95705,32.388684,7.97787Q32.320048,7.99869,32.253782,8.02614Q32.187517,8.05358,32.124261,8.0874Q32.061005,8.12121,32.001368,8.16105Q31.94173,8.2009,31.886286,8.2464Q31.830841,8.29191,31.78012,8.34262Q31.72941,8.393341,31.6839,8.448786Q31.6384,8.50423,31.59855,8.563868Q31.55871,8.623505,31.5249,8.686761Q31.49108,8.750017,31.46364,8.816282Q31.43619,8.882548,31.41537,8.951184Q31.39455,9.019821,31.38055,9.090168Q31.36656,9.160515,31.35953,9.231895Q31.3525,9.3032748,31.3525,9.375Q31.3525,9.4098907,31.35417,9.4447416L31.35417,32.7428Q31.3525,32.7776,31.3525,32.8125Q31.3525,32.8842,31.35953,32.955600000000004Q31.36656,33.027,31.38055,33.097300000000004Q31.39455,33.167699999999996,31.41537,33.2363Q31.43619,33.305,31.46364,33.3712Q31.49108,33.4375,31.5249,33.500699999999995Q31.55871,33.564,31.59855,33.623599999999996Q31.6384,33.6833,31.6839,33.7387Q31.72941,33.794200000000004,31.78012,33.844899999999996Q31.830841,33.8956,31.886286,33.9411Q31.94173,33.986599999999996,32.001368,34.026399999999995Q32.061005,34.0663,32.124261,34.1001Q32.187517,34.1339,32.253782,34.1614Q32.320048,34.1888,32.388684,34.209599999999995Q32.457321,34.2305,32.527668,34.2444Q32.598015,34.2584,32.669395,34.2655Q32.7407748,34.2725,32.8125,34.2725Q32.8842252,34.2725,32.955605,34.2655Q33.026985,34.2584,33.097332,34.2444Q33.167679,34.2305,33.236316,34.209599999999995Q33.304952,34.1888,33.371218,34.1614Q33.437483,34.1339,33.500739,34.1001Q33.563995,34.0663,33.623632,34.026399999999995Q33.68327,33.986599999999996,33.738714,33.9411Q33.794159,33.8956,33.84488,33.844899999999996Q33.89559,33.794200000000004,33.9411,33.7387Q33.9866,33.6833,34.02645,33.623599999999996Q34.06629,33.564,34.1001,33.500699999999995Q34.13392,33.4375,34.16136,33.3712Q34.18881,33.305,34.20963,33.2363Q34.23045,33.167699999999996,34.24445,33.097300000000004Q34.25844,33.027,34.26547,32.955600000000004Q34.2725,32.8842,34.2725,32.8125Q34.2725,32.7776,34.27083,32.7428L34.27083,9.4447416Z" fill-rule="evenodd" fill="#333333" fill-opacity="1"/></g><g><path d="M9.5,12L35.5,12Q35.647400000000005,12,35.7941,11.98555Q35.9407,11.97111,36.085300000000004,11.94236Q36.2298,11.9136,36.3709,11.87082Q36.5119,11.82804,36.647999999999996,11.77164Q36.7842,11.71524,36.9142,11.64576Q37.044200000000004,11.57629,37.1667,11.49441Q37.2893,11.41253,37.4032,11.31903Q37.5171,11.22553,37.621300000000005,11.12132Q37.7255,11.01711,37.819,10.90318Q37.9125,10.78925,37.9944,10.66671Q38.0763,10.54417,38.1458,10.41419Q38.215199999999996,10.28421,38.2716,10.14805Q38.328,10.01189,38.3708,9.870854Q38.4136,9.72982,38.4424,9.585271Q38.4711,9.440722,38.485600000000005,9.294051Q38.5,9.147381,38.5,9Q38.5,8.852619,38.485600000000005,8.705949Q38.4711,8.559278,38.4424,8.414729Q38.4136,8.27018,38.3708,8.129146Q38.328,7.98811,38.2716,7.85195Q38.215199999999996,7.71579,38.1458,7.58581Q38.0763,7.45583,37.9944,7.33329Q37.9125,7.21075,37.819,7.09682Q37.7255,6.982889999999999,37.621300000000005,6.87868Q37.5171,6.77447,37.4032,6.68097Q37.2893,6.58747,37.1667,6.50559Q37.044200000000004,6.42371,36.9142,6.35424Q36.7842,6.28476,36.647999999999996,6.22836Q36.5119,6.17196,36.3709,6.12918Q36.2298,6.086399999999999,36.085300000000004,6.05764Q35.9407,6.0288900000000005,35.7941,6.01445Q35.647400000000005,6,35.5,6L9.5,6Q9.352619,6,9.205949,6.01445Q9.059278,6.0288900000000005,8.914729,6.05764Q8.77018,6.086399999999999,8.629146,6.12918Q8.48811,6.17196,8.35195,6.22836Q8.21579,6.28476,8.08581,6.35424Q7.95583,6.42371,7.83329,6.50559Q7.71075,6.58747,7.59682,6.68097Q7.482889999999999,6.77447,7.37868,6.87868Q7.27447,6.982889999999999,7.18097,7.09682Q7.08747,7.21075,7.00559,7.33329Q6.92371,7.45583,6.85424,7.58581Q6.78476,7.71579,6.72836,7.85195Q6.67196,7.98811,6.62918,8.129146Q6.586399999999999,8.27018,6.55764,8.414729Q6.5288900000000005,8.559278,6.51445,8.705949Q6.5,8.852619,6.5,9Q6.5,9.147381,6.51445,9.294051Q6.5288900000000005,9.440722,6.55764,9.585271Q6.586399999999999,9.72982,6.62918,9.870854Q6.67196,10.01189,6.72836,10.14805Q6.78476,10.28421,6.85424,10.41419Q6.92371,10.54417,7.00559,10.66671Q7.08747,10.78925,7.18097,10.90318Q7.27447,11.01711,7.37868,11.12132Q7.482889999999999,11.22553,7.59682,11.31903Q7.71075,11.41253,7.83329,11.49441Q7.95583,11.57629,8.08581,11.64576Q8.21579,11.71524,8.35195,11.77164Q8.48811,11.82804,8.629146,11.87082Q8.77018,11.9136,8.914729,11.94236Q9.059278,11.97111,9.205949,11.98555Q9.352619,12,9.5,12Z" fill-rule="evenodd" fill="#333333" fill-opacity="1"/></g><g><path d="M7.54167,37.2857288671875L7.54167,33.4285888671875Q7.54167,33.3569455671875,7.54869,33.2856468671875Q7.5557099999999995,33.2143488671875,7.56969,33.1440818671875Q7.58367,33.0738158671875,7.6044599999999996,33.0052568671875Q7.62526,32.9366988671875,7.65268,32.8705088671875Q7.68009,32.8043188671875,7.71387,32.7411348671875Q7.7476400000000005,32.6779518671875,7.78744,32.6183818671875Q7.82724,32.5588128671875,7.87269,32.5034318671875Q7.91814,32.4480508671875,7.9688,32.3973888671875Q8.019462,32.3467288671875,8.074843,32.3012788671875Q8.130224,32.2558288671875,8.189793,32.2160288671875Q8.249363,32.1762288671875,8.312546,32.1424588671875Q8.37573,32.1086788671875,8.44192,32.0812688671875Q8.50811,32.0538488671875,8.576668,32.0330488671875Q8.645227,32.0122588671875,8.715493,31.9982788671875Q8.78576,31.9842988671875,8.857058,31.9772788671875Q8.9283567,31.9702588671875,9,31.9702588671875L15.42857,31.9702588671875Q15.50021,31.9702588671875,15.57151,31.9772788671875Q15.64281,31.9842988671875,15.71308,31.9982788671875Q15.783339999999999,32.0122588671875,15.8519,32.0330488671875Q15.92046,32.0538488671875,15.986650000000001,32.0812688671875Q16.05284,32.1086788671875,16.11602,32.1424588671875Q16.17921,32.1762288671875,16.23878,32.2160288671875Q16.29835,32.2558288671875,16.35373,32.3012788671875Q16.40911,32.3467288671875,16.45977,32.3973888671875Q16.51043,32.4480508671875,16.555880000000002,32.5034318671875Q16.60133,32.5588128671875,16.64113,32.6183818671875Q16.68093,32.6779518671875,16.71471,32.7411348671875Q16.74848,32.8043188671875,16.7759,32.8705088671875Q16.80331,32.9366988671875,16.82411,33.0052568671875Q16.84491,33.0738158671875,16.85888,33.1440818671875Q16.87286,33.2143488671875,16.87988,33.2856468671875Q16.8869,33.3569455671875,16.8869,33.4285888671875L16.8869,37.2857288671875Q16.8869,37.3573788671875,16.87988,37.4286688671875Q16.87286,37.4999688671875,16.85888,37.5702388671875Q16.84491,37.6405088671875,16.82411,37.7090588671875Q16.80331,37.7776188671875,16.7759,37.8438088671875Q16.74848,37.9099988671875,16.71471,37.9731888671875Q16.68093,38.0363688671875,16.64113,38.0959388671875Q16.60133,38.1555088671875,16.555880000000002,38.2108888671875Q16.51043,38.2662688671875,16.45977,38.3169288671875Q16.40911,38.3675888671875,16.35373,38.4130388671875Q16.29835,38.4584888671875,16.23878,38.4982888671875Q16.17921,38.5380988671875,16.11602,38.5718688671875Q16.05284,38.6056388671875,15.986650000000001,38.6330588671875Q15.92046,38.660468867187504,15.8519,38.6812688671875Q15.783339999999999,38.7020688671875,15.71308,38.7160388671875Q15.64281,38.730018867187496,15.57151,38.7370388671875Q15.50021,38.7440688671875,15.42857,38.7440688671875L9,38.7440688671875Q8.9283567,38.7440688671875,8.857058,38.7370388671875Q8.78576,38.730018867187496,8.715493,38.7160388671875Q8.645227,38.7020688671875,8.576668,38.6812688671875Q8.50811,38.660468867187504,8.44192,38.6330588671875Q8.37573,38.6056388671875,8.312546,38.5718688671875Q8.249363,38.5380988671875,8.189793,38.4982888671875Q8.130224,38.4584888671875,8.074843,38.4130388671875Q8.019462,38.3675888671875,7.9688,38.3169288671875Q7.91814,38.2662688671875,7.87269,38.2108888671875Q7.82724,38.1555088671875,7.78744,38.0959388671875Q7.7476400000000005,38.0363688671875,7.71387,37.9731888671875Q7.68009,37.9099988671875,7.65268,37.8438088671875Q7.62526,37.7776188671875,7.6044599999999996,37.7090588671875Q7.58367,37.6405088671875,7.56969,37.5702388671875Q7.5557099999999995,37.4999688671875,7.54869,37.4286688671875Q7.54167,37.3573788671875,7.54167,37.2857288671875ZM10.45833,34.8869188671875L10.45833,35.8273988671875L13.97024,35.8273988671875L13.97024,34.8869188671875L10.45833,34.8869188671875Z" fill="#333333" fill-opacity="1"/></g><g><path d="M28.1130811328125,37.2857288671875L28.1130811328125,33.4285888671875Q28.1130811328125,33.3569455671875,28.1201011328125,33.2856468671875Q28.1271211328125,33.2143488671875,28.1411011328125,33.1440818671875Q28.1550811328125,33.0738158671875,28.1758711328125,33.0052568671875Q28.1966711328125,32.9366988671875,28.2240911328125,32.8705088671875Q28.2515011328125,32.8043188671875,28.2852811328125,32.7411348671875Q28.3190511328125,32.6779518671875,28.3588511328125,32.6183818671875Q28.3986511328125,32.5588128671875,28.4441011328125,32.5034318671875Q28.4895511328125,32.4480508671875,28.5402111328125,32.3973888671875Q28.5908731328125,32.3467288671875,28.6462541328125,32.3012788671875Q28.7016351328125,32.2558288671875,28.7612041328125,32.2160288671875Q28.8207741328125,32.1762288671875,28.8839571328125,32.1424588671875Q28.9471411328125,32.1086788671875,29.0133311328125,32.0812688671875Q29.0795211328125,32.0538488671875,29.1480791328125,32.0330488671875Q29.2166381328125,32.0122588671875,29.2869041328125,31.9982788671875Q29.3571711328125,31.9842988671875,29.4284691328125,31.9772788671875Q29.4997678328125,31.9702588671875,29.5714111328125,31.9702588671875L35.9999811328125,31.9702588671875Q36.0716211328125,31.9702588671875,36.1429211328125,31.9772788671875Q36.2142211328125,31.9842988671875,36.2844911328125,31.9982788671875Q36.3547511328125,32.0122588671875,36.4233111328125,32.0330488671875Q36.4918711328125,32.0538488671875,36.5580611328125,32.0812688671875Q36.6242511328125,32.1086788671875,36.6874311328125,32.1424588671875Q36.7506211328125,32.1762288671875,36.8101911328125,32.2160288671875Q36.8697611328125,32.2558288671875,36.9251411328125,32.3012788671875Q36.9805211328125,32.3467288671875,37.0311811328125,32.3973888671875Q37.0818411328125,32.4480508671875,37.1272911328125,32.5034318671875Q37.1727411328125,32.5588128671875,37.212541132812504,32.6183818671875Q37.252341132812504,32.6779518671875,37.2861211328125,32.7411348671875Q37.3198911328125,32.8043188671875,37.3473111328125,32.8705088671875Q37.374721132812496,32.9366988671875,37.3955211328125,33.0052568671875Q37.4163211328125,33.0738158671875,37.4302911328125,33.1440818671875Q37.4442711328125,33.2143488671875,37.4512911328125,33.2856468671875Q37.4583111328125,33.3569455671875,37.4583111328125,33.4285888671875L37.4583111328125,37.2857288671875Q37.4583111328125,37.3573788671875,37.4512911328125,37.4286688671875Q37.4442711328125,37.4999688671875,37.4302911328125,37.5702388671875Q37.4163211328125,37.6405088671875,37.3955211328125,37.7090588671875Q37.374721132812496,37.7776188671875,37.3473111328125,37.8438088671875Q37.3198911328125,37.9099988671875,37.2861211328125,37.9731888671875Q37.252341132812504,38.0363688671875,37.212541132812504,38.0959388671875Q37.1727411328125,38.1555088671875,37.1272911328125,38.2108888671875Q37.0818411328125,38.2662688671875,37.0311811328125,38.3169288671875Q36.9805211328125,38.3675888671875,36.9251411328125,38.4130388671875Q36.8697611328125,38.4584888671875,36.8101911328125,38.4982888671875Q36.7506211328125,38.5380988671875,36.6874311328125,38.5718688671875Q36.6242511328125,38.6056388671875,36.5580611328125,38.6330588671875Q36.4918711328125,38.660468867187504,36.4233111328125,38.6812688671875Q36.3547511328125,38.7020688671875,36.2844911328125,38.7160388671875Q36.2142211328125,38.730018867187496,36.1429211328125,38.7370388671875Q36.0716211328125,38.7440688671875,35.9999811328125,38.7440688671875L29.5714111328125,38.7440688671875Q29.4997678328125,38.7440688671875,29.4284691328125,38.7370388671875Q29.3571711328125,38.730018867187496,29.2869041328125,38.7160388671875Q29.2166381328125,38.7020688671875,29.1480791328125,38.6812688671875Q29.0795211328125,38.660468867187504,29.0133311328125,38.6330588671875Q28.9471411328125,38.6056388671875,28.8839571328125,38.5718688671875Q28.8207741328125,38.5380988671875,28.7612041328125,38.4982888671875Q28.7016351328125,38.4584888671875,28.6462541328125,38.4130388671875Q28.5908731328125,38.3675888671875,28.5402111328125,38.3169288671875Q28.4895511328125,38.2662688671875,28.4441011328125,38.2108888671875Q28.3986511328125,38.1555088671875,28.3588511328125,38.0959388671875Q28.3190511328125,38.0363688671875,28.2852811328125,37.9731888671875Q28.2515011328125,37.9099988671875,28.2240911328125,37.8438088671875Q28.1966711328125,37.7776188671875,28.1758711328125,37.7090588671875Q28.1550811328125,37.6405088671875,28.1411011328125,37.5702388671875Q28.1271211328125,37.4999688671875,28.1201011328125,37.4286688671875Q28.1130811328125,37.3573788671875,28.1130811328125,37.2857288671875ZM31.0297411328125,34.8869188671875L31.0297411328125,35.8273988671875L34.541651132812504,35.8273988671875L34.541651132812504,34.8869188671875L31.0297411328125,34.8869188671875Z" fill="#333333" fill-opacity="1"/></g></g></svg>