<svg xmlns="http://www.w3.org/2000/svg" xmlns:xlink="http://www.w3.org/1999/xlink" fill="none" version="1.1" width="34" height="34" viewBox="0 0 34 34"><defs><clipPath id="master_svg0_1_177"><rect x="0" y="0" width="34" height="34" rx="0"/></clipPath></defs><g clip-path="url(#master_svg0_1_177)"><g><path d="M2.56509198828125,10.901358247070313Q1.33331298828125,13.813628247070312,1.33331298828125,17.00002824707031Q1.33331298828125,20.186328247070314,2.56509298828125,23.098628247070312Q3.7543729882812498,25.910428247070314,5.92197298828125,28.078028247070314Q8.08958298828125,30.24562824707031,10.90134298828125,31.434928247070314Q13.81361298828125,32.666628247070314,17.00001298828125,32.666628247070314Q20.18631298828125,32.666628247070314,23.09861298828125,31.434928247070314Q25.91041298828125,30.24562824707031,28.07801298828125,28.078028247070314Q30.24561298828125,25.910428247070314,31.43491298828125,23.098628247070312Q32.66661298828125,20.186328247070314,32.66661298828125,17.00002824707031Q32.66661298828125,13.813628247070312,31.43491298828125,10.901358247070313Q30.24561298828125,8.089588247070314,28.07801298828125,5.9219882470703125Q25.91041298828125,3.7543872470703126,23.09861298828125,2.5651072470703125Q20.18631298828125,1.3333282470703125,17.00001298828125,1.3333282470703125Q13.81361298828125,1.3333282470703125,10.90134298828125,2.5651082470703126Q8.089572988281251,3.7543852470703127,5.92197298828125,5.9219882470703125Q3.75436898828125,8.089588247070314,2.56509198828125,10.901358247070313ZM5.32810298828125,21.92992824707031Q4.33331298828125,19.578028247070314,4.33331298828125,17.00002824707031Q4.33331298828125,14.421928247070312,5.32810298828125,12.070018247070312Q6.28944298828125,9.797158247070312,8.04329298828125,8.043308247070312Q9.79714298828125,6.289458247070312,12.07000298828125,5.328118247070313Q14.42191298828125,4.3333282470703125,17.00001298828125,4.3333282470703125Q19.57801298828125,4.3333282470703125,21.92991298828125,5.328118247070313Q24.20281298828125,6.289458247070312,25.95671298828125,8.043308247070312Q27.71051298828125,9.797158247070312,28.67181298828125,12.070018247070312Q29.66661298828125,14.421928247070312,29.66661298828125,17.00002824707031Q29.66661298828125,19.578028247070314,28.67181298828125,21.92992824707031Q27.71051298828125,24.20282824707031,25.95671298828125,25.956728247070313Q24.20281298828125,27.71052824707031,21.92991298828125,28.671828247070312Q19.57801298828125,29.666628247070314,17.00001298828125,29.666628247070314Q14.42191298828125,29.666628247070314,12.07000298828125,28.671828247070312Q9.79714298828125,27.71052824707031,8.04329298828125,25.956728247070313Q6.28944298828125,24.20282824707031,5.32810298828125,21.92992824707031Z" fill-rule="evenodd" fill="#959595" fill-opacity="1"/></g><g><path d="M12.66668701171875,16.999984038085937L12.66668701171875,21.907464038085937Q12.66668701171875,22.30941403808594,12.86764701171875,22.65741403808594Q12.94151701171875,22.78541403808594,13.03892701171875,22.89651403808594Q13.13633701171875,23.007514038085937,13.25354401171875,23.09751403808594Q13.37075201171875,23.18741403808594,13.50325301171875,23.252814038085937Q13.63575401171875,23.318114038085938,13.77845701171875,23.356314038085937Q13.92116001171875,23.394614038085937,14.06858131171875,23.40421403808594Q14.21600221171875,23.413914038085938,14.36247501171875,23.394614038085937Q14.50894901171875,23.37531403808594,14.64884601171875,23.32781403808594Q14.78874201171875,23.280414038085937,14.91668701171875,23.20651403808594L19.16668701171875,20.752764038085935L23.41668701171875,18.29902403808594Q23.76476701171875,18.098064038085937,23.965727011718748,17.749984038085937Q24.00256701171875,17.686174038085937,24.032987011718753,17.61904403808594Q24.06339701171875,17.551924038085936,24.087077011718748,17.482144038085938Q24.11076701171875,17.412364038085936,24.12750701171875,17.34060403808594Q24.14423701171875,17.268834038085938,24.15385701171875,17.195774038085936Q24.16346701171875,17.122714038085938,24.165887011718752,17.049064038085938Q24.16828701171875,16.975414038085937,24.16347701171875,16.90188403808594Q24.158657011718752,16.828354038085937,24.14664701171875,16.755644038085936Q24.134647011718748,16.68293403808594,24.11557701171875,16.611764038085937Q24.09650701171875,16.54058403808594,24.07054701171875,16.47161403808594Q24.04458701171875,16.40264403808594,24.011997011718748,16.336554038085936Q23.97940701171875,16.270464038085937,23.94048701171875,16.207884038085936Q23.90157701171875,16.14530403808594,23.85671701171875,16.08684403808594Q23.81185701171875,16.02838403808594,23.76148701171875,15.974604038085937Q23.711107011718752,15.920814038085938,23.65570701171875,15.872224038085937Q23.600307011718748,15.823644038085938,23.54040701171875,15.780714038085938Q23.48050701171875,15.737794038085937,23.41668701171875,15.700954038085937L19.16668701171875,13.247214038085938L14.91668701171875,10.793474038085938Q14.56861101171875,10.592514038085938,14.16668701171875,10.592514038085938Q14.09299671171875,10.592514038085938,14.01966101171875,10.599734038085938Q13.94632601171875,10.606964038085938,13.87405201171875,10.621334038085937Q13.80177701171875,10.635714038085938,13.73126001171875,10.657104038085937Q13.66074301171875,10.678494038085937,13.59266201171875,10.706694038085937Q13.52458101171875,10.734894038085937,13.45959201171875,10.769634038085938Q13.39460301171875,10.804374038085937,13.33333201171875,10.845314038085938Q13.27206001171875,10.886254038085937,13.21509701171875,10.932994038085937Q13.15813701171875,10.979744038085938,13.10602701171875,11.031854038085937Q13.05391701171875,11.083964038085938,13.00716701171875,11.140924038085938Q12.96042701171875,11.197887038085938,12.91948701171875,11.259159038085938Q12.87854701171875,11.320430038085938,12.84380701171875,11.385419038085937Q12.80906701171875,11.450408038085937,12.78086701171875,11.518489038085937Q12.75266701171875,11.586570038085938,12.731277011718749,11.657087038085937Q12.70988701171875,11.727604038085937,12.69550701171875,11.799879038085937Q12.68113701171875,11.872153038085937,12.67390701171875,11.945488038085937Q12.66668701171875,12.018823738085937,12.66668701171875,12.092514038085938L12.66668701171875,16.999984038085937ZM15.66668701171875,19.309384038085938L17.66668701171875,18.15468403808594L19.66668701171875,16.999984038085937L17.66668701171875,15.845294038085937L15.66668701171875,14.690594038085937L15.66668701171875,19.309384038085938Z" fill-rule="evenodd" fill="#959595" fill-opacity="1"/></g></g></svg>